<svg xmlns="http://www.w3.org/2000/svg" xmlns:xlink="http://www.w3.org/1999/xlink" width="713.543" height="514.44" viewBox="0 0 713.543 514.44"><defs><filter id="a" x="0" y="0" width="713.543" height="514.44" filterUnits="userSpaceOnUse"><feOffset dy="10" input="SourceAlpha"/><feGaussianBlur stdDeviation="3" result="b"/><feFlood flood-opacity="0.161"/><feComposite operator="in" in2="b"/><feComposite in="SourceGraphic"/></filter></defs><g transform="matrix(1, 0, 0, 1, 0, 0)" filter="url(#a)"><path d="M71.1,54.78c-36,0-62.46,27-62.46,62.28S35.1,179.34,71.1,179.34s62.46-27,62.46-62.28S107.1,54.78,71.1,54.78Zm0,107.64c-25.74,0-44.1-18.72-44.1-45.36S45.36,71.7,71.1,71.7s44.1,18.72,44.1,45.36S96.84,162.42,71.1,162.42ZM149.5,177h17.64V140.64c0-24.48,8.1-25.56,16.02-25.56,6.66,0,13.86.54,13.86,19.8V177h17.64V130.56c0-11.7-1.8-16.92-4.68-21.06-2.34-3.24-8.28-10.26-22.32-10.26a26.1,26.1,0,0,0-20.52,9v-7.02H149.5Zm136.9-25.56a27.372,27.372,0,0,1-7.02,8.28,18.573,18.573,0,0,1-12.06,3.78c-4.32,0-9.36-.72-13.5-4.86-3.78-3.78-6.12-9.9-6.48-15.3h54.36v-2.16c0-7.92-.9-21.96-10.62-32.04-4.5-4.68-12.24-9.9-24.3-9.9-10.8,0-19.08,3.96-25.38,10.26-7.92,8.1-12.06,19.44-12.06,31.14,0,11.34,3.96,21.78,11.16,28.98s15.48,9.72,25.56,9.72c8.1,0,16.2-1.8,22.32-5.76a39.733,39.733,0,0,0,12.78-13.86Zm-37.8-22.5a19.859,19.859,0,0,1,5.4-9.72,18.394,18.394,0,0,1,24.3-.54,18.328,18.328,0,0,1,5.4,10.26Zm114.043-16.38a26.023,26.023,0,0,0-8.64-9.36,23.714,23.714,0,0,0-14.04-3.96c-9.36,0-15.12,3.6-18.54,7.2a23.665,23.665,0,0,0-6.3,16.2,16.522,16.522,0,0,0,5.4,12.78c2.88,2.88,7.02,4.86,10.44,6.48l6.48,3.06a23.242,23.242,0,0,1,7.56,4.68,8.173,8.173,0,0,1,2.34,5.76,8.937,8.937,0,0,1-2.52,5.94,10.617,10.617,0,0,1-7.2,2.52,10.8,10.8,0,0,1-7.74-2.88c-1.62-1.44-3.24-4.68-4.14-7.2l-14.4,6.84a29.531,29.531,0,0,0,9.72,13.86c5.4,4.14,11.52,4.86,16.38,4.86,7.92,0,15.3-1.98,21.24-8.46a25.164,25.164,0,0,0,6.66-17.28,18.7,18.7,0,0,0-5.58-14.04c-2.88-3.06-6.66-5.04-10.62-7.02l-9-4.5c-3.78-1.98-4.86-2.34-5.94-3.06a4.847,4.847,0,0,1-2.52-4.32,5.71,5.71,0,0,1,1.62-3.96,7.477,7.477,0,0,1,5.4-1.98c5.58,0,9,3.6,10.8,6.48Zm46.543,4.86v-16.2h-13.5V73.5H378.05v27.72h-7.38v16.2h7.38V177h17.64V117.42Zm44.743-18.18c-22.86,0-40.5,16.56-40.5,39.96,0,23.22,17.64,40.14,40.5,40.14s40.5-16.92,40.5-40.14C494.433,115.8,476.793,99.24,453.933,99.24Zm0,64.26c-13.86,0-22.5-9.54-22.5-24.12,0-17.28,11.34-24.3,22.5-24.3s22.5,7.02,22.5,24.3C476.433,153.96,467.793,163.5,453.933,163.5Zm72.823,4.68a30.09,30.09,0,0,0,22.68,11.16c18,0,36.72-15.12,36.72-40.68,0-24.12-16.92-39.42-36.9-39.42a28.506,28.506,0,0,0-22.5,10.26v-8.28h-17.64v117h17.64Zm20.34-53.1c12.78,0,21.06,10.8,21.06,24.3,0,13.14-8.28,24.12-21.06,24.12-11.16,0-21.42-8.1-21.42-23.94C525.676,123,535.936,115.08,547.1,115.08ZM81,240.94a40.9,40.9,0,0,0-9.18-12.06c-3.78-3.24-11.16-8.1-24.12-8.1-22.5,0-35.1,15.48-35.1,31.68,0,18,14.58,26.28,24.48,30.42l11.52,4.86c7.92,3.24,17.28,8.28,17.28,20.52,0,12.06-8.64,20.16-19.8,20.16-7.2,0-12.24-2.88-15.66-7.2a25.927,25.927,0,0,1-5.04-15.3L7.2,309.88a38.869,38.869,0,0,0,10.08,23.4c6.12,6.84,14.4,12.06,28.26,12.06,22.5,0,38.7-15.66,38.7-38.52,0-13.68-6.12-26.28-28.26-35.28l-12.06-4.86C32.22,262,30.96,255.7,30.96,252.1c0-7.74,5.76-14.4,16.92-14.4,5.22,0,9.18,1.26,12.96,4.32a19.072,19.072,0,0,1,5.4,7.56Zm51.043,42.48v-16.2h-13.5V239.5H100.9v27.72h-7.38v16.2h7.38V343h17.64V283.42Zm63.643-7.38a27.627,27.627,0,0,0-22.5-10.8c-19.98,0-36.9,15.12-36.9,39.78,0,20.88,13.32,40.32,36.72,40.32a29.1,29.1,0,0,0,22.68-10.26V343h17.64V267.22h-17.64Zm-20.34,5.04c11.16,0,21.42,7.92,21.42,24.48,0,15.84-10.26,23.94-21.42,23.94-12.78,0-21.06-10.98-21.06-24.12C154.285,291.88,162.565,281.08,175.345,281.08Zm88.3,2.34v-16.2h-13.5V239.5h-17.64v27.72h-7.38v16.2h7.38V343h17.64V283.42Zm8.2-16.2V343h17.64V267.22Zm-2.52-31.32a11.34,11.34,0,1,0,11.34-11.34A11.073,11.073,0,0,0,269.33,235.9Zm75.343,29.34c-22.86,0-40.5,16.56-40.5,39.96,0,23.22,17.64,40.14,40.5,40.14s40.5-16.92,40.5-40.14C385.173,281.8,367.533,265.24,344.673,265.24Zm0,64.26c-13.86,0-22.5-9.54-22.5-24.12,0-17.28,11.34-24.3,22.5-24.3s22.5,7.02,22.5,24.3C367.173,319.96,358.533,329.5,344.673,329.5Zm55,13.5h17.64V306.64c0-24.48,8.1-25.56,16.02-25.56,6.66,0,13.86.54,13.86,19.8V343h17.64V296.56c0-11.7-1.8-16.92-4.68-21.06-2.34-3.24-8.28-10.26-22.32-10.26a26.1,26.1,0,0,0-20.52,9v-7.02h-17.64Zm136.9-25.56a27.372,27.372,0,0,1-7.02,8.28,18.573,18.573,0,0,1-12.06,3.78c-4.32,0-9.36-.72-13.5-4.86-3.78-3.78-6.12-9.9-6.48-15.3h54.36v-2.16c0-7.92-.9-21.96-10.62-32.04-4.5-4.68-12.24-9.9-24.3-9.9-10.8,0-19.08,3.96-25.38,10.26-7.92,8.1-12.06,19.44-12.06,31.14,0,11.34,3.96,21.78,11.16,28.98s15.48,9.72,25.56,9.72c8.1,0,16.2-1.8,22.32-5.76a39.733,39.733,0,0,0,12.78-13.86Zm-37.8-22.5a19.859,19.859,0,0,1,5.4-9.72,18.394,18.394,0,0,1,24.3-.54,18.328,18.328,0,0,1,5.4,10.26ZM566.561,343H584.2V303.76c0-5.04,0-12.24,4.86-17.46,3.42-3.6,7.2-4.14,10.98-4.14a15.968,15.968,0,0,1,9,2.7l7.2-16.02a26.168,26.168,0,0,0-13.86-3.6,20.374,20.374,0,0,0-10.8,2.52,30.509,30.509,0,0,0-7.38,6.3v-6.84h-17.64Zm56.083,41.22h19.8l60.3-117h-19.8l-21.96,44.28-21.6-44.28h-21.24l32.4,63.9ZM81,406.94a40.9,40.9,0,0,0-9.18-12.06c-3.78-3.24-11.16-8.1-24.12-8.1-22.5,0-35.1,15.48-35.1,31.68,0,18,14.58,26.28,24.48,30.42l11.52,4.86c7.92,3.24,17.28,8.28,17.28,20.52,0,12.06-8.64,20.16-19.8,20.16-7.2,0-12.24-2.88-15.66-7.2a25.927,25.927,0,0,1-5.04-15.3L7.2,475.88a38.869,38.869,0,0,0,10.08,23.4c6.12,6.84,14.4,12.06,28.26,12.06,22.5,0,38.7-15.66,38.7-38.52,0-13.68-6.12-26.28-28.26-35.28l-12.06-4.86C32.22,428,30.96,421.7,30.96,418.1c0-7.74,5.76-14.4,16.92-14.4,5.22,0,9.18,1.26,12.96,4.32a19.072,19.072,0,0,1,5.4,7.56Zm19.363,26.28v43.92c0,9.72,1.08,17.82,8.1,24.84,6.84,7.02,16.2,9.36,23.94,9.36,8.46,0,17.82-2.52,24.66-9.36,7.02-7.02,8.1-15.12,8.1-24.84V433.22h-17.64V476.6c0,4.5-.18,9.72-3.24,13.68a15.322,15.322,0,0,1-23.04,0c-3.06-3.96-3.24-9.18-3.24-13.68V433.22Zm101.083,66.96a30.09,30.09,0,0,0,22.68,11.16c18,0,36.72-15.12,36.72-40.68,0-24.12-16.92-39.42-36.9-39.42a28.506,28.506,0,0,0-22.5,10.26v-8.28h-17.64v117h17.64Zm20.34-53.1c12.78,0,21.06,10.8,21.06,24.3,0,13.14-8.28,24.12-21.06,24.12-11.16,0-21.42-8.1-21.42-23.94C200.365,455,210.625,447.08,221.785,447.08Zm71.383,53.1a30.09,30.09,0,0,0,22.68,11.16c18,0,36.72-15.12,36.72-40.68,0-24.12-16.92-39.42-36.9-39.42a28.506,28.506,0,0,0-22.5,10.26v-8.28h-17.64v117h17.64Zm20.34-53.1c12.78,0,21.06,10.8,21.06,24.3,0,13.14-8.28,24.12-21.06,24.12-11.16,0-21.42-8.1-21.42-23.94C292.088,455,302.348,447.08,313.508,447.08Zm53.743-69.3V509h17.64V377.78Zm36.283,55.44V509h17.64V433.22Zm-2.52-31.32a11.34,11.34,0,1,0,11.34-11.34A11.073,11.073,0,0,0,401.013,401.9Zm91.9,81.54a27.372,27.372,0,0,1-7.02,8.28,18.573,18.573,0,0,1-12.06,3.78c-4.32,0-9.36-.72-13.5-4.86-3.78-3.78-6.12-9.9-6.48-15.3h54.36v-2.16c0-7.92-.9-21.96-10.62-32.04-4.5-4.68-12.24-9.9-24.3-9.9-10.8,0-19.08,3.96-25.38,10.26-7.92,8.1-12.06,19.44-12.06,31.14,0,11.34,3.96,21.78,11.16,28.98s15.48,9.72,25.56,9.72c8.1,0,16.2-1.8,22.32-5.76a39.733,39.733,0,0,0,12.78-13.86Zm-37.8-22.5a19.859,19.859,0,0,1,5.4-9.72,18.394,18.394,0,0,1,24.3-.54,18.328,18.328,0,0,1,5.4,10.26Zm114.043-16.38a26.023,26.023,0,0,0-8.64-9.36,23.714,23.714,0,0,0-14.04-3.96c-9.36,0-15.12,3.6-18.54,7.2a23.665,23.665,0,0,0-6.3,16.2,16.522,16.522,0,0,0,5.4,12.78c2.88,2.88,7.02,4.86,10.44,6.48l6.48,3.06a23.242,23.242,0,0,1,7.56,4.68,8.172,8.172,0,0,1,2.34,5.76,8.937,8.937,0,0,1-2.52,5.94,10.617,10.617,0,0,1-7.2,2.52,10.8,10.8,0,0,1-7.74-2.88c-1.62-1.44-3.24-4.68-4.14-7.2l-14.4,6.84a29.531,29.531,0,0,0,9.72,13.86c5.4,4.14,11.52,4.86,16.38,4.86,7.92,0,15.3-1.98,21.24-8.46a25.164,25.164,0,0,0,6.66-17.28,18.7,18.7,0,0,0-5.58-14.04c-2.88-3.06-6.66-5.04-10.62-7.02l-9-4.5c-3.78-1.98-4.86-2.34-5.94-3.06a4.847,4.847,0,0,1-2.52-4.32,5.71,5.71,0,0,1,1.62-3.96,7.477,7.477,0,0,1,5.4-1.98c5.58,0,9,3.6,10.8,6.48Z" transform="translate(1.8 -54.78)" fill="#fff"/></g></svg>